<?xml version="1.0" encoding="UTF-8" standalone="no"?>
<svg
   version="1.0"
   width="512pt"
   height="512pt"
   viewBox="0 0 512 512"
   preserveAspectRatio="xMidYMid"
   id="svg13"
   sodipodi:docname="logo.svg"
   inkscape:version="1.2.1 (9c6d41e4, 2022-07-14)"
   xmlns:inkscape="http://www.inkscape.org/namespaces/inkscape"
   xmlns:sodipodi="http://sodipodi.sourceforge.net/DTD/sodipodi-0.dtd"
   xmlns="http://www.w3.org/2000/svg"
   xmlns:svg="http://www.w3.org/2000/svg">
  <defs
     id="defs17" />
  <sodipodi:namedview
     id="namedview15"
     pagecolor="#ffffff"
     bordercolor="#000000"
     borderopacity="0.25"
     inkscape:showpageshadow="2"
     inkscape:pageopacity="0.0"
     inkscape:pagecheckerboard="true"
     inkscape:deskcolor="#d1d1d1"
     inkscape:document-units="pt"
     showgrid="false"
     inkscape:zoom="0.78374771"
     inkscape:cx="355.34394"
     inkscape:cy="333.01533"
     inkscape:window-width="1390"
     inkscape:window-height="942"
     inkscape:window-x="0"
     inkscape:window-y="25"
     inkscape:window-maximized="0"
     inkscape:current-layer="svg13" />
  <g
     transform="matrix(0.07371377,0,0,-0.08085676,33.766326,472.23829)"
     fill="#000000"
     stroke="none"
     id="g11"
     style="fill:#ffffff;fill-opacity:1">
    <path
       d="m 1754,4335 c -209,-125 -243,-149 -253,-176 -7,-20 -11,-126 -11,-289 V 3613 L 878,3260 C 541,3066 255,2897 242,2883 c -30,-32 -29,-77 3,-108 l 24,-25 h 236 235 v -983 c 0,-834 2,-986 14,-1003 14,-19 46,-19 2054,-19 1984,0 2041,1 2061,19 20,18 21,28 21,285 0,146 -4,272 -9,280 -5,7 -28,17 -52,22 -24,4 -815,8 -1756,9 H 1360 v 270 270 h 1248 c 1197,0 1250,1 1265,18 15,16 17,51 17,290 0,269 0,271 -22,286 -20,14 -157,16 -1265,16 H 1360 l 2,162 3,161 820,475 c 451,261 825,475 830,475 6,0 401,-224 878,-497 477,-273 886,-505 907,-516 37,-19 59,-20 498,-20 h 459 l 27,26 c 30,31 34,72 9,102 -26,30 -2732,1593 -2768,1599 -24,3 -60,-13 -185,-85 -85,-49 -283,-164 -440,-254 l -285,-165 -5,231 c -3,127 -7,232 -8,233 -30,31 -51,43 -76,43 -22,0 -105,-45 -272,-145 z"
       id="path9"
       style="fill:#ffffff;fill-opacity:1" />
  </g>
</svg>
