<?xml version="1.0" encoding="UTF-8"?><svg id="a" xmlns="http://www.w3.org/2000/svg" viewBox="0 0 127.83 127.83"><defs><style>.b{fill:#fff;}</style></defs><path class="b" d="M63.92,127.83C28.67,127.83,0,99.16,0,63.92S28.67,0,63.92,0s63.91,28.67,63.91,63.92-28.67,63.91-63.91,63.91Zm0-125.8C29.8,2.03,2.04,29.79,2.04,63.92s27.76,61.88,61.88,61.88,61.88-27.76,61.88-61.88S98.04,2.03,63.92,2.03Z"/><path class="b" d="M101.64,70.63c3.15,0,5.71-3,5.71-6.71s-2.56-6.72-5.71-6.72h-34.82v13.43h34.82Z"/><path class="b" d="M101.64,38.6c3.15,0,5.71-3,5.71-6.72s-2.56-6.71-5.71-6.71h-34.82v13.43h34.82Z"/><path class="b" d="M101.64,102.66c3.15,0,5.71-3.01,5.71-6.72s-2.56-6.71-5.71-6.71h-34.82v13.43h34.82Z"/><path class="b" d="M20.48,95.94c0,3.71,2.56,6.72,5.7,6.72H59.57v-13.43H26.18c-3.15,0-5.7,3.01-5.7,6.71Z"/><path class="b" d="M59.57,38.6v-13.43H26.18c-1.5,0-2.86,.69-3.89,1.81-.02,.03-.05,.06-.08,.08-.02,.03-.06,.07-.09,.1-1.02,1.11-1.65,2.59-1.65,4.23V63.91c0,1.43,.38,2.75,1.02,3.84,1.04,1.73,2.74,2.87,4.68,2.87H59.57v-13.43h-26.77v-18.6h26.77Z"/></svg>